<?xml version="1.0" encoding="utf-8"?>
<svg xmlns="http://www.w3.org/2000/svg">
<symbol id="icon1-1" viewBox="0 0 32 32"><g id="Layer_2" data-name="Layer 2"><path d="M3.2,8.6H28.4A1.6,1.6,0,0,0,30,7.1a1.6,1.6,0,0,0-1.6-1.6H3.2A1.6,1.6,0,0,0,1.6,7.1,1.6,1.6,0,0,0,3.2,8.6Z" style="fill: var(--tpy-icon-fill)"/><path d="M28.4,23.4H3.2a1.6,1.6,0,0,0-1.6,1.5,1.6,1.6,0,0,0,1.6,1.6H28.4A1.6,1.6,0,0,0,30,24.9,1.6,1.6,0,0,0,28.4,23.4Z" style="fill: var(--tpy-icon-fill)"/><path d="M3.2,14.6H26.3A1.6,1.6,0,0,0,27.9,13a1.6,1.6,0,0,0-1.6-1.5H3.2A1.6,1.6,0,0,0,1.6,13,1.6,1.6,0,0,0,3.2,14.6Z" style="fill: var(--tpy-icon-fill)"/><path d="M3.2,20.5H22.1A1.6,1.6,0,0,0,23.7,19a1.6,1.6,0,0,0-1.6-1.6H3.2A1.6,1.6,0,0,0,1.6,19,1.6,1.6,0,0,0,3.2,20.5Z" style="fill: var(--tpy-icon-fill)"/></g>
</symbol>
<symbol id="icon1-10" viewBox="0 0 32 32"><g id="Layer_2" data-name="Layer 2"><path d="M9.3,17.5c0-5.2,4.3-4.9,4.3-8.2S10.4,2.8,6.3,2.8,2,5.3,2,8.8c0,6.7,5,17,12.9,20.4l.9-1.2C11.8,25.6,9.3,21.2,9.3,17.5Z" style="fill: var(--tpy-icon-fill)"/><path d="M23.5,17.5c0-5.2,4.3-4.9,4.3-8.2s-3.2-6.5-7.2-6.5-4.4,2.5-4.4,6c0,6.7,5,17,12.9,20.4L30,28C26,25.6,23.5,21.2,23.5,17.5Z" style="fill: var(--tpy-icon-fill)"/></g>
</symbol>
<symbol id="icon1-11" viewBox="0 0 32 32"><g id="Layer_2" data-name="Layer 2"><path d="M18.2,17.1a1.4,1.4,0,0,1,1.6.7l1.1,2.7A11.3,11.3,0,1,0,2,12.3,11.2,11.2,0,0,0,13.2,23.5,11,11,0,0,0,18.9,22l-1.4-3.3A1.4,1.4,0,0,1,18.2,17.1ZM9,16.1a14.2,14.2,0,0,1-3.3-3.9,14.6,14.6,0,0,1,3.8-4,7.2,7.2,0,0,1,4.2-1.3,7.9,7.9,0,0,1,4.6,1.5,13.8,13.8,0,0,1,3.4,3.8,12.9,12.9,0,0,1-3.4,3.9,7.9,7.9,0,0,1-4.6,1.5A8.2,8.2,0,0,1,9,16.1Z" style="fill: var(--tpy-icon-fill)"/><path d="M13.7,9a3.3,3.3,0,0,0,0,6.5,3.3,3.3,0,0,0,3.2-3.3A3.2,3.2,0,0,0,13.7,9Zm0,5.4a2.1,2.1,0,0,1-2.1-2.2,2.1,2.1,0,0,1,4.2,0A2.1,2.1,0,0,1,13.7,14.4Z" style="fill: var(--tpy-icon-fill)"/><path d="M30.5,23.4v-.3l-1.1-2.6a1.1,1.1,0,0,0-1.6-.7,1.1,1.1,0,0,0-.6,1.5h-.3l-.2-.6a1.2,1.2,0,0,0-1.6-.7,1.3,1.3,0,0,0-.7,1.6l.3.6h-.2L24,21.3a1.2,1.2,0,0,0-1.5-.7,1.2,1.2,0,0,0-.7,1.6l.4,1.1H22l-1.1-2.9a9.5,9.5,0,0,1-2,1.5l1.7,4.4-1.3-.9a1.4,1.4,0,0,0-1.7.4,1.2,1.2,0,0,0,.4,1.7l5.5,3.5a1.4,1.4,0,0,0,1.1.1l5.8-2.3a1.4,1.4,0,0,0,.8-1.3Z" style="fill: var(--tpy-icon-fill)"/></g>
</symbol>
<symbol id="icon1-12" viewBox="0 0 32 32"><g id="Layer_2" data-name="Layer 2"><path d="M30,23.3c0-.1-.1-.2-.1-.3l-1.1-2.7a1.1,1.1,0,0,0-1.5-.6,1.2,1.2,0,0,0-.7,1.5h-.2l-.3-.7a1.1,1.1,0,0,0-1.6-.6,1.1,1.1,0,0,0-.6,1.5l.2.7h-.2l-.4-1.1a1.2,1.2,0,0,0-1.6-.7,1.3,1.3,0,0,0-.7,1.6l.5,1.1h-.3l-1.1-2.9a9.5,9.5,0,0,1-2,1.5l1.8,4.4-1.4-.9a1.2,1.2,0,1,0-1.3,2.1L22.9,31a2.1,2.1,0,0,0,1.1.1l5.9-2.4a1.1,1.1,0,0,0,.7-1.3Z" style="fill: var(--tpy-icon-fill)"/><path d="M17.7,17a1.1,1.1,0,0,1,1.5.7l1.1,2.7a11.4,11.4,0,0,0,3.6-8.3A11.3,11.3,0,1,0,12.7,23.4a10.9,10.9,0,0,0,5.6-1.5L17,18.6A1.1,1.1,0,0,1,17.7,17ZM13,4.1a7.9,7.9,0,0,1,4.6,1.5A13.8,13.8,0,0,1,21,9.4a14,14,0,0,1-2.6,3.3l-2.3-2.4a2.8,2.8,0,0,0,.1-.9A3.2,3.2,0,0,0,13,6.2h-.9L10.3,4.6A6.5,6.5,0,0,1,13,4.1Zm2.1,5.2-2-2A2.1,2.1,0,0,1,15.1,9.3ZM7.3,3,19.4,15.1l-.7.8L6.5,3.7Zm5.6,8.6a2.3,2.3,0,0,1-2.1-2.1Zm.1,3.2a8,8,0,0,1-4.7-1.5A12.9,12.9,0,0,1,4.9,9.4,16.3,16.3,0,0,1,7.6,6.3L9.9,8.6a2.2,2.2,0,0,0-.1.8A3.2,3.2,0,0,0,13,12.7l.8-.2,1.8,1.8A7.5,7.5,0,0,1,13,14.8Z" style="fill: var(--tpy-icon-fill)"/></g>
</symbol>
<symbol id="icon1-13" viewBox="0 0 32 32"><g id="Layer_2" data-name="Layer 2"><path d="M12.7,3.2H2.3A1.3,1.3,0,0,0,1,4.5,1.3,1.3,0,0,0,2.3,5.8H12.7A1.3,1.3,0,0,0,14,4.5,1.3,1.3,0,0,0,12.7,3.2Z" style="fill: var(--tpy-icon-fill)"/><path d="M12.7,9H2.3A1.3,1.3,0,0,0,1,10.3a1.2,1.2,0,0,0,1.3,1.2H12.7A1.2,1.2,0,0,0,14,10.3,1.3,1.3,0,0,0,12.7,9Z" style="fill: var(--tpy-icon-fill)"/><path d="M12.7,14.7H2.3a1.3,1.3,0,1,0,0,2.6H12.7a1.3,1.3,0,0,0,0-2.6Z" style="fill: var(--tpy-icon-fill)"/><path d="M19.3,5.8H29.7A1.3,1.3,0,0,0,31,4.5a1.3,1.3,0,0,0-1.3-1.3H19.3A1.3,1.3,0,0,0,18,4.5,1.3,1.3,0,0,0,19.3,5.8Z" style="fill: var(--tpy-icon-fill)"/><path d="M29.7,9H19.3A1.3,1.3,0,0,0,18,10.3a1.2,1.2,0,0,0,1.3,1.2H29.7A1.2,1.2,0,0,0,31,10.3,1.3,1.3,0,0,0,29.7,9Z" style="fill: var(--tpy-icon-fill)"/><path d="M29.7,14.7H19.3a1.3,1.3,0,1,0,0,2.6H29.7a1.3,1.3,0,1,0,0-2.6Z" style="fill: var(--tpy-icon-fill)"/><path d="M12.7,20.5H2.3A1.3,1.3,0,0,0,1,21.8,1.2,1.2,0,0,0,2.3,23H12.7A1.2,1.2,0,0,0,14,21.8,1.3,1.3,0,0,0,12.7,20.5Z" style="fill: var(--tpy-icon-fill)"/><path d="M29.7,20.5H19.3A1.3,1.3,0,0,0,18,21.8,1.2,1.2,0,0,0,19.3,23H29.7A1.2,1.2,0,0,0,31,21.8,1.3,1.3,0,0,0,29.7,20.5Z" style="fill: var(--tpy-icon-fill)"/><path d="M12.7,26.2H2.3a1.3,1.3,0,1,0,0,2.6H12.7a1.3,1.3,0,1,0,0-2.6Z" style="fill: var(--tpy-icon-fill)"/><path d="M29.7,26.2H19.3a1.3,1.3,0,1,0,0,2.6H29.7a1.3,1.3,0,1,0,0-2.6Z" style="fill: var(--tpy-icon-fill)"/></g>
</symbol>
<symbol id="icon1-2" viewBox="0 0 32 32"><g id="Layer_2" data-name="Layer 2"><path d="M27.3,3.6a27.3,27.3,0,0,0-22.6,0A2.8,2.8,0,0,0,3,6.4c.4,7.2.9,14.5,1.3,21.7a2.9,2.9,0,0,0,3.8,2.6,33.4,33.4,0,0,1,9.5-1.8,36.8,36.8,0,0,1,7.9.7A2.8,2.8,0,0,0,29,26.8V6.3A3,3,0,0,0,27.3,3.6Zm-2.7,13c0,.2-.1.4-.3.4l-2.1.3-.5,1.1A18.3,18.3,0,0,0,23,20c0,.1.1.2.1.3s-.1.1-.1.2-1.9,2.1-2.3,2.1h-.3l-1.5-1.3-1.1.5a15.2,15.2,0,0,1-.3,2.1c-.1.2-.2.3-.4.3H14.5c-.2,0-.4-.1-.4-.3l-.3-2.1-1.1-.4-1.6,1.2h-.6a18,18,0,0,1-1.9-2c0-.1-.1-.1-.1-.2s.1-.2.1-.3a9.5,9.5,0,0,0,1.2-1.6,4.9,4.9,0,0,1-.4-1.1L7.3,17l-.4-.4V14a.4.4,0,0,1,.3-.4l2.2-.3a3.6,3.6,0,0,1,.4-1.1L8.6,10.6a.4.4,0,0,1-.1-.3c0-.1,0-.2.1-.2S10.4,8,10.8,8h.3l1.6,1.3,1-.5a15.5,15.5,0,0,1,.4-2.1c0-.2.2-.3.4-.3h2.6c.2,0,.3.1.4.3l.3,2.1,1,.4,1.7-1.2H21a18,18,0,0,1,1.9,2c.1,0,.1.1.1.2a.4.4,0,0,1-.1.3l-1.2,1.6a3.7,3.7,0,0,1,.5,1.1l2.1.3c.2.1.3.2.3.4Z" style="fill: var(--tpy-icon-fill)"/><circle cx="15.8" cy="15.3" r="2.9" style="fill: var(--tpy-icon-fill)"/></g>
</symbol>
<symbol id="icon1-3" viewBox="0 0 32 32"><g id="Layer_2" data-name="Layer 2"><path d="M27.4,4.6a8.2,8.2,0,0,0-11.6,0L12.2,8.2h0a8.1,8.1,0,0,0,0,11.5l1.1.9a.8.8,0,0,0,1.1-.1l1.1-1.1a2.1,2.1,0,0,0,.7-1.6,1,1,0,0,0-.4-.7l-.6-.4a3.9,3.9,0,0,1,0-5.5l3.7-3.6a3.9,3.9,0,0,1,5.5,0,4,4,0,0,1-.1,5.5l-.7.7a1,1,0,0,0-.2.9,9.2,9.2,0,0,1,.5,2.8.9.9,0,0,0,1.5.6l2-2A8.2,8.2,0,0,0,27.4,4.6Z" style="fill: var(--tpy-icon-fill)"/><path d="M18.7,11.3a.8.8,0,0,0-1.1.1l-1.1,1.1a2.1,2.1,0,0,0-.7,1.6,1,1,0,0,0,.4.7l.6.4a3.9,3.9,0,0,1,0,5.5l-3.7,3.6a3.9,3.9,0,0,1-5.5,0,4,4,0,0,1,.1-5.5l.7-.7a1,1,0,0,0,.2-.9,9.2,9.2,0,0,1-.5-2.8.9.9,0,0,0-1.5-.6l-2,2A8.2,8.2,0,0,0,16.2,27.4l3.6-3.6h0a8.1,8.1,0,0,0,0-11.5Z" style="fill: var(--tpy-icon-fill)"/></g>
</symbol>
<symbol id="icon1-4" viewBox="0 0 32 32"><g id="Layer_2" data-name="Layer 2"><path d="M30,9.7,22.7,2.8a1.2,1.2,0,0,0-2.1.9V7.4c-7.5,0-13.5,1.5-13.5,8.8a9.8,9.8,0,0,0,3.8,7.4.8.8,0,0,0,1.2-.9c-2-7,1.1-8.7,8.5-8.8v3.7a1.3,1.3,0,0,0,2.1.9l7.3-7A1.3,1.3,0,0,0,30,9.7Z" style="fill: var(--tpy-icon-fill)"/><path d="M26.6,20.3a.9.9,0,0,0-1,1v4.2c0,1.6-1.9,3.1-4.1,3.1H6.7c-2.2,0-4.1-1.5-4.1-3.1V7.6c0-1.6,1.9-3,4.1-3H16a1.1,1.1,0,0,0,1-1,1,1,0,0,0-1-1H6.7C3.3,2.6.6,4.8.6,7.6V25.5c0,2.8,2.7,5.1,6.1,5.1H21.5c3.3,0,6.1-2.3,6.1-5.1V21.3A1,1,0,0,0,26.6,20.3Z" style="fill: var(--tpy-icon-fill)"/></g>
</symbol>
<symbol id="icon1-5" viewBox="0 0 32 32"><g id="Layer_2" data-name="Layer 2"><path d="M17.1,4.6c6.2,3.7,5.1,7.1-.4,12.1L14.3,14a1.3,1.3,0,0,0-2.2.7l-.8,10.1a1.3,1.3,0,0,0,1.2,1.4l10.2.2a1.3,1.3,0,0,0,.9-2.1l-2.5-2.7c5.6-5.1,9.1-10.2,4.1-15.7A10.3,10.3,0,0,0,17.5,3,.9.9,0,0,0,17.1,4.6Z" style="fill: var(--tpy-icon-fill)"/><path d="M28.6,20.3a.9.9,0,0,0-1,1v4.2c0,1.6-1.9,3.1-4.1,3.1H8.7c-2.2,0-4.1-1.5-4.1-3.1V7.6c0-1.6,1.9-3,4.1-3h5.5a1.1,1.1,0,0,0,1-1,1,1,0,0,0-1-1H8.7c-3.4,0-6.1,2.2-6.1,5V25.5c0,2.8,2.7,5.1,6.1,5.1H23.5c3.3,0,6.1-2.3,6.1-5.1V21.3A1,1,0,0,0,28.6,20.3Z" style="fill: var(--tpy-icon-fill)"/></g>
</symbol>
<symbol id="icon1-6" viewBox="0 0 32 32"><g id="Layer_2" data-name="Layer 2"><path d="M28.6,23.5H9.7A1.6,1.6,0,0,0,8.1,25a1.6,1.6,0,0,0,1.6,1.6H28.6A1.6,1.6,0,0,0,30.2,25,1.6,1.6,0,0,0,28.6,23.5Z" style="fill: var(--tpy-icon-fill)"/><path d="M28.6,14.5H9.7A1.6,1.6,0,0,0,8.1,16a1.6,1.6,0,0,0,1.6,1.6H28.6A1.6,1.6,0,0,0,30.2,16,1.6,1.6,0,0,0,28.6,14.5Z" style="fill: var(--tpy-icon-fill)"/><path d="M9.7,8.6H28.6A1.6,1.6,0,0,0,30.2,7a1.6,1.6,0,0,0-1.6-1.5H9.7A1.6,1.6,0,0,0,8.1,7,1.6,1.6,0,0,0,9.7,8.6Z" style="fill: var(--tpy-icon-fill)"/><path d="M3.5,3.8c-.2-.2-.5-.2-.6,0l-.4.4c-.2.1-.2.4,0,.6L4.2,6.5,2.5,8.2c-.2.2-.2.5,0,.6l.4.4c.1.2.4.2.6,0L5.9,6.8a.4.4,0,0,0,0-.6Z" style="fill: var(--tpy-icon-fill)"/><path d="M3.5,12.8c-.2-.2-.5-.2-.6,0l-.4.4c-.2.1-.2.4,0,.6l1.7,1.7L2.5,17.2c-.2.2-.2.5,0,.6l.4.4c.1.2.4.2.6,0l2.4-2.4a.4.4,0,0,0,0-.6Z" style="fill: var(--tpy-icon-fill)"/><path d="M3.5,22.8c-.2-.2-.5-.2-.6,0l-.4.4c-.2.1-.2.4,0,.6l1.7,1.7L2.5,27.2c-.2.2-.2.5,0,.6l.4.4c.1.2.4.2.6,0l2.4-2.4a.4.4,0,0,0,0-.6Z" style="fill: var(--tpy-icon-fill)"/></g>
</symbol>
<symbol id="icon1-7" viewBox="0 0 32 32"><g id="Layer_2" data-name="Layer 2"><path d="M8,11.7a2.2,2.2,0,0,0-2.2,2.2v4.2A2.2,2.2,0,0,0,8,20.3H27.8L31.5,16l-3.7-4.3Z" style="fill: var(--tpy-icon-fill)"/><path d="M2.6,22.4A2.2,2.2,0,0,0,.5,24.6v4.2A2.2,2.2,0,0,0,2.6,31h23l3.8-4.3-3.8-4.3Z" style="fill: var(--tpy-icon-fill)"/><path d="M2.6,9.6h23l3.8-4.3L25.6,1H2.6A2.2,2.2,0,0,0,.5,3.2V7.4A2.2,2.2,0,0,0,2.6,9.6Z" style="fill: var(--tpy-icon-fill)"/></g>
</symbol>
<symbol id="icon1-8" viewBox="0 0 32 32"><g id="Layer_2" data-name="Layer 2"><polygon points="11.9 1.8 1 21.4 22.9 21.4 11.9 1.8" style="fill: var(--tpy-icon-fill)"/><path d="M21.2,10.6l-2,.2,5.4,9.6,1.6,2.9H11.9a9.8,9.8,0,1,0,9.3-12.7Z" style="fill: var(--tpy-icon-fill)"/></g>
</symbol>
<symbol id="icon1-9" viewBox="0 0 32 32"><g id="Layer_2" data-name="Layer 2"><path d="M28.2,8H3.8a2.3,2.3,0,0,0-2.3,2.3v7.4A2.3,2.3,0,0,0,3.8,20H12l.5.5L16,24l3.5-3.5L20,20h8.2a2.3,2.3,0,0,0,2.3-2.3V10.3A2.3,2.3,0,0,0,28.2,8Z" style="fill: var(--tpy-icon-fill)"/></g>
</symbol>
<symbol id="icon2-1" viewBox="0 0 32 32"><g id="Layer_2" data-name="Layer 2"><path d="M26.4,5.4A15.2,15.2,0,0,0,16,1,15.2,15.2,0,0,0,5.6,5.4,14.5,14.5,0,0,0,1,16c0,4,1.8,7.9,3,10.2S7,31,8.5,31s6.4-2.1,6.4-2.1l-7.5-14L3.8,17.1a6.2,6.2,0,0,1-.1-1.3A11.8,11.8,0,0,1,7.5,7.1,12.3,12.3,0,0,1,16,3.5a12.3,12.3,0,0,1,8.5,3.6,11.8,11.8,0,0,1,3.8,8.7,6.2,6.2,0,0,1-.1,1.3l-3.6-2.2-7.5,14S21.4,31,23.5,31s3.2-2.5,4.5-4.8S31,20,31,16A14.5,14.5,0,0,0,26.4,5.4Z" style="fill: var(--tpy-icon-fill)"/></g>
</symbol>
<symbol id="icon2-2" viewBox="0 0 32 32"><g id="Layer_2" data-name="Layer 2"><path d="M28.1,13.7,7.7,1.6A2.8,2.8,0,0,0,3.5,4V28.2a2.8,2.8,0,0,0,4.2,2.3l20.4-12A2.7,2.7,0,0,0,28.1,13.7Zm-7.5,1.7-4,3.8a.7.7,0,0,1-1.1-.5v-2c-4,0-5.7,1-4.5,4.7.1.4-.4.8-.7.5A5.3,5.3,0,0,1,8.2,18c0-4,3.3-4.8,7.3-4.8v-2a.7.7,0,0,1,1.1-.5l4,3.8A.8.8,0,0,1,20.6,15.4Z" style="fill: var(--tpy-icon-fill)"/></g>
</symbol>
<symbol id="icon2-3" viewBox="0 0 32 32"><g id="Layer_2" data-name="Layer 2"><path d="M28.1,13.7,7.7,1.6A2.8,2.8,0,0,0,3.5,4V28.2a2.8,2.8,0,0,0,4.2,2.3l20.4-12A2.7,2.7,0,0,0,28.1,13.7Zm-9.6,2.5v.2l-.8,3.1a.8.8,0,0,1-.8.7H12.1c-.2,0-.6-.1-.7-.4l-2.9-4a.9.9,0,0,1,1.4-1l.8,1V9.5a.9.9,0,0,1,1.8,0V14h.2v-.9a.9.9,0,0,1,1.8,0V14h.2v-.5a.9.9,0,0,1,1.8,0V14h.2a.9.9,0,0,1,1.8,0Z" style="fill: var(--tpy-icon-fill)"/></g>
</symbol>
<symbol id="icon2-4" viewBox="0 0 32 32"><g id="Layer_2" data-name="Layer 2"><path d="M29.8,13.8H14.1a.9.9,0,0,0-.8.8V30.3a1.2,1.2,0,0,0,1.2,1.2H29.8A1.2,1.2,0,0,0,31,30.3V15A1.2,1.2,0,0,0,29.8,13.8Zm-2.1,9.6-7.6,4.5a1.1,1.1,0,0,1-1.6-.9V18a1,1,0,0,1,1.6-.9l7.6,4.5A1.1,1.1,0,0,1,27.7,23.4Z" style="fill: var(--tpy-icon-fill)"/><path d="M13.3,12.3H27.1V11.2A1.1,1.1,0,0,0,26,10H10.8a1.3,1.3,0,0,0-1.3,1.4V26.5a1.2,1.2,0,0,0,1.1,1.2h1.2V13.8A1.5,1.5,0,0,1,13.3,12.3Z" style="fill: var(--tpy-icon-fill)"/><path d="M9.1,7H22.9V5.9a1.1,1.1,0,0,0-1.1-1.2H6.6A1.3,1.3,0,0,0,5.3,6.1V21.2a1.1,1.1,0,0,0,1.1,1.2H7.6V8.6A1.5,1.5,0,0,1,9.1,7Z" style="fill: var(--tpy-icon-fill)"/><path d="M4.9,2.8H18.7V1.7A1.2,1.2,0,0,0,17.5.5H2.4A1.3,1.3,0,0,0,1,1.8V17a1.2,1.2,0,0,0,1.2,1.2H3.3V4.3A1.6,1.6,0,0,1,4.9,2.8Z" style="fill: var(--tpy-icon-fill)"/></g>
</symbol>
<symbol id="icon2-5" viewBox="0 0 32 32"><g id="Layer_2" data-name="Layer 2"><path d="M13.3,12.3H27.1V11.2A1.1,1.1,0,0,0,26,10H10.8a1.3,1.3,0,0,0-1.3,1.4V26.5a1.2,1.2,0,0,0,1.1,1.2h1.2V13.8A1.5,1.5,0,0,1,13.3,12.3Z" style="fill: var(--tpy-icon-fill)"/><path d="M9.1,7H22.9V5.9a1.1,1.1,0,0,0-1.1-1.2H6.6A1.3,1.3,0,0,0,5.3,6.1V21.2a1.1,1.1,0,0,0,1.1,1.2H7.6V8.6A1.5,1.5,0,0,1,9.1,7Z" style="fill: var(--tpy-icon-fill)"/><path d="M4.9,2.8H18.7V1.7A1.2,1.2,0,0,0,17.5.5H2.4A1.3,1.3,0,0,0,1,1.8V17a1.2,1.2,0,0,0,1.2,1.2H3.3V4.3A1.6,1.6,0,0,1,4.9,2.8Z" style="fill: var(--tpy-icon-fill)"/><path d="M29.8,13.8H14.1a.9.9,0,0,0-.8.8V30.3a1.2,1.2,0,0,0,1.2,1.2H29.8A1.2,1.2,0,0,0,31,30.3V15A1.2,1.2,0,0,0,29.8,13.8ZM21.9,27a1,1,0,0,1-1,1H18.8a1,1,0,0,1-1-1V19.3a.9.9,0,0,1,1-1h2.1a.9.9,0,0,1,1,1Zm5.6,0a1.1,1.1,0,0,1-1,1H24.4a1.1,1.1,0,0,1-1.1-1V19.3a1,1,0,0,1,1.1-1h2.1a1,1,0,0,1,1,1Z" style="fill: var(--tpy-icon-fill)"/></g>
</symbol>
<symbol id="icon2-6" viewBox="0 0 32 32"><g id="Layer_2" data-name="Layer 2"><path d="M5.7,25.5a24.5,24.5,0,0,1,.2-2.7A12.7,12.7,0,0,0,6.2,20c0-2.4-1-3.6-2.7-4h0c1.7-.4,2.7-1.6,2.7-4a12.7,12.7,0,0,0-.3-2.8,24.6,24.6,0,0,1-.2-2.6c0-2,.7-3.2,2.9-3.2h.7v-2H8.5c-3.1,0-5.4,1.4-5.4,4.8,0,1.1.2,2,.3,3.1a16.3,16.3,0,0,1,.3,3.1c0,1.3-.3,2.7-3,2.7v1.9c2.7,0,3,1.6,3,2.7a15.3,15.3,0,0,1-.3,3c-.1,1-.3,2.1-.3,3.1,0,3.7,2.3,5,5.4,5h.8v-2H8.6C6.5,28.7,5.7,27.5,5.7,25.5Z" style="fill: var(--tpy-icon-fill)"/><path d="M31.3,16.9V15c-2.7,0-3-1.4-3-2.7a16.3,16.3,0,0,1,.3-3.1c.1-1.1.3-2,.3-3.1,0-3.4-2.3-4.8-5.4-4.8h-.8v2h.7c2.2,0,2.9,1.2,2.9,3.2a24.6,24.6,0,0,1-.2,2.6,12.7,12.7,0,0,0-.3,2.8c0,2.4,1,3.6,2.7,4h0c-1.7.4-2.7,1.6-2.7,4a12.7,12.7,0,0,0,.3,2.8,24.5,24.5,0,0,1,.2,2.7c0,2-.8,3.2-2.9,3.2h-.7v2h.8c3.1,0,5.4-1.3,5.4-5,0-1-.2-2.1-.3-3.1a15.3,15.3,0,0,1-.3-3C28.3,18.5,28.6,16.9,31.3,16.9Z" style="fill: var(--tpy-icon-fill)"/><path d="M24.1,14,10.3,5.8A1.9,1.9,0,0,0,7.5,7.4V23.7a1.8,1.8,0,0,0,2.8,1.6l13.8-8.1A1.9,1.9,0,0,0,24.1,14ZM12.9,19.6c-2.5-1-4-4.2-4-6.2s.4-1.9,1.3-1.9a2.3,2.3,0,0,1,2.3,2c0,1-1.4.9-1.4,2.5a4.2,4.2,0,0,0,2,3.3Zm4.3,0c-2.4-1-3.9-4.2-3.9-6.2s.4-1.9,1.3-1.9a2.3,2.3,0,0,1,2.2,2c0,1-1.3.9-1.3,2.5a4.2,4.2,0,0,0,2,3.3Z" style="fill: var(--tpy-icon-fill)"/></g>
</symbol>
<symbol id="icon2-7" viewBox="0 0 32 32"><g id="Layer_2" data-name="Layer 2"><path d="M5.7,25.5a24.5,24.5,0,0,1,.2-2.7A12.7,12.7,0,0,0,6.2,20c0-2.4-1-3.6-2.7-4h0c1.7-.4,2.7-1.6,2.7-4a12.7,12.7,0,0,0-.3-2.8,24.6,24.6,0,0,1-.2-2.6c0-2,.7-3.2,2.9-3.2h.7v-2H8.5c-3.1,0-5.4,1.4-5.4,4.8,0,1.1.2,2,.3,3.1a16.3,16.3,0,0,1,.3,3.1c0,1.3-.3,2.7-3,2.7v1.9c2.7,0,3,1.6,3,2.7a15.3,15.3,0,0,1-.3,3c-.1,1-.3,2.1-.3,3.1,0,3.7,2.3,5,5.4,5h.8v-2H8.6C6.5,28.7,5.7,27.5,5.7,25.5Z" style="fill: var(--tpy-icon-fill)"/><path d="M31.3,16.9V15c-2.7,0-3-1.4-3-2.7a16.3,16.3,0,0,1,.3-3.1c.1-1.1.3-2,.3-3.1,0-3.4-2.3-4.8-5.4-4.8h-.8v2h.7c2.2,0,2.9,1.2,2.9,3.2a24.6,24.6,0,0,1-.2,2.6,12.7,12.7,0,0,0-.3,2.8c0,2.4,1,3.6,2.7,4h0c-1.7.4-2.7,1.6-2.7,4a12.7,12.7,0,0,0,.3,2.8,24.5,24.5,0,0,1,.2,2.7c0,2-.8,3.2-2.9,3.2h-.7v2h.8c3.1,0,5.4-1.3,5.4-5,0-1-.2-2.1-.3-3.1a15.3,15.3,0,0,1-.3-3C28.3,18.5,28.6,16.9,31.3,16.9Z" style="fill: var(--tpy-icon-fill)"/><path d="M24.1,14,10.3,5.8A1.9,1.9,0,0,0,7.5,7.4V23.7a1.8,1.8,0,0,0,2.8,1.6l13.8-8.1A1.9,1.9,0,0,0,24.1,14Zm-9.6,4a2,2,0,1,1,2-2A2,2,0,0,1,14.5,18Z" style="fill: var(--tpy-icon-fill)"/></g>
</symbol>
<symbol id="icon2-8" viewBox="0 0 32 32"><g id="Layer_2" data-name="Layer 2"><path d="M22.3,19.4a11.7,11.7,0,0,0,2.3-7,12,12,0,1,0-12,12,11.7,11.7,0,0,0,7-2.3l9.2,9.2,2.7-2.6Zm.9-6.9a10.4,10.4,0,0,1-1,4.3V8.2a10.4,10.4,0,0,1,1,4.3ZM4.9,17.7V14.8l4-3.5a2,2,0,0,1,2.7.1l2.7,2.7L9.4,19H6.2A1.3,1.3,0,0,1,4.9,17.7ZM14.2,9a2,2,0,1,1,2,2A2,2,0,0,1,14.2,9Zm2.2,4.9a2,2,0,0,1,2.5,0l2,1.7v2.1A1.3,1.3,0,0,1,19.6,19H11.3ZM12.7,2a10.8,10.8,0,0,1,6.6,2.3H6A10.8,10.8,0,0,1,12.7,2ZM3.6,7.3V17.7h0a10.1,10.1,0,0,1-1.4-5.2A10.1,10.1,0,0,1,3.6,7.3ZM12.7,23a10.1,10.1,0,0,1-7.1-2.8h14A10.1,10.1,0,0,1,12.7,23Z" style="fill: var(--tpy-icon-fill)"/></g>
</symbol>
<symbol id="icon2-9" viewBox="0 0 32 32"><g id="Layer_2" data-name="Layer 2"><path d="M12.9,26.7,15,24.6v-3L9.9,26.7H4.8a2.1,2.1,0,0,1-2.1-2.2V20L9,14.4a3.2,3.2,0,0,1,4.4.1L15,16.1V3.2H4.8A4.2,4.2,0,0,0,.6,7.5v17a4.2,4.2,0,0,0,4.2,4.3H15V26.7Z" style="fill: var(--tpy-icon-fill)"/><path d="M26.1,26.7a2.2,2.2,0,0,0,2.2-2.2V21.2l-3.2-2.6a3.2,3.2,0,0,0-4.1,0l-6,6v2.1Z" style="fill: var(--tpy-icon-fill)"/><polygon points="17.7 18.8 15 16.1 15 21.6 17.7 18.8" style="fill: var(--tpy-icon-fill)"/><path d="M15,.5V3.2H26.1a4.3,4.3,0,0,1,4.3,4.3v17a4.3,4.3,0,0,1-4.3,4.3H15v2.7H31.4V.5Z" style="fill: var(--tpy-icon-fill)"/><path d="M20.8,7.5a3.2,3.2,0,0,0-3.2,3.2,3.2,3.2,0,1,0,6.4,0A3.2,3.2,0,0,0,20.8,7.5Z" style="fill: var(--tpy-icon-fill)"/></g>
</symbol>
<symbol id="icon3-1" viewBox="0 0 32 32"><g id="Layer_2" data-name="Layer 2"><path d="M27,4a2.9,2.9,0,0,0-3-3H4A2.9,2.9,0,0,0,1,4v6H27ZM23.5,6.5H3.5v-1h20Z" style="fill: var(--tpy-icon-fill)"/><path d="M28,11.5H8a2.9,2.9,0,0,0-3,3v6H31v-6A2.9,2.9,0,0,0,28,11.5ZM27.5,17H7.5V16h20Z" style="fill: var(--tpy-icon-fill)"/><path d="M24,22H4a2.9,2.9,0,0,0-3,3v6H27V25A2.9,2.9,0,0,0,24,22Zm-.5,5.5H3.5v-1h20Z" style="fill: var(--tpy-icon-fill)"/></g>
</symbol>
<symbol id="icon3-2" viewBox="0 0 32 32"><g id="Layer_2" data-name="Layer 2"><path d="M27.6,13.4H18.5a3.1,3.1,0,0,1-3.1-3.1v-9c0-.2-.1-.3-.2-.3h-6A4.1,4.1,0,0,0,5.1,5.1V25.9A4.1,4.1,0,0,0,9.2,30H23.7a4.1,4.1,0,0,0,4.1-4.1V13.7C27.8,13.5,27.7,13.4,27.6,13.4ZM12,28a5.5,5.5,0,1,1,5.5-5.5A5.5,5.5,0,0,1,12,28Z" style="fill: var(--tpy-icon-fill)"/><path d="M18.5,11.4h8.4a.2.2,0,0,0,.2-.2H27L17.7,1.8h-.2v8.4A1.1,1.1,0,0,0,18.5,11.4Z" style="fill: var(--tpy-icon-fill)"/><polygon points="11.7 18.3 11.2 18.3 9.2 19.6 9.2 20.4 10.8 19.4 10.8 25.4 9.1 25.4 9.1 26.2 13.5 26.2 13.5 25.4 11.7 25.4 11.7 18.3" style="fill: var(--tpy-icon-fill)"/></g>
</symbol>
<symbol id="icon3-3" viewBox="0 0 32 32"><g id="Layer_2" data-name="Layer 2"><path d="M29.6,1H2.4A2,2,0,0,0,.5,2.9v26A2.2,2.2,0,0,0,2.6,31H29.4a2.1,2.1,0,0,0,2.1-2.1V2.9A2,2,0,0,0,29.6,1ZM20.7,24.5H11.3v-5h9.4Zm0-6H11.3v-5h9.4Zm0-6H11.3v-5h9.4Zm-10.4-5v5H1v-5Zm0,6v5H1v-5Zm0,6v5H1v-5Zm0,11H2.6A1.6,1.6,0,0,1,1,28.9V25.5h9.3Zm10.4,0H11.3v-5h9.4ZM31,28.9a1.6,1.6,0,0,1-1.6,1.6H21.7v-5H31Zm-9.3-4.4v-5H31v5Zm0-6v-5H31v5Zm0-6v-5H31v5Z" style="fill: var(--tpy-icon-fill)"/></g>
</symbol>
<symbol id="icon3-4" viewBox="0 0 32 32"><g id="Layer_2" data-name="Layer 2"><path d="M28.5,5h-1V3.9h-.6a.2.2,0,0,0-.2.2V5h-1a.3.3,0,0,0-.1.2v.6h1.1v1h.9v-1h1.1V5.2A.3.3,0,0,0,28.5,5Z" style="fill: var(--tpy-icon-fill)"/><path d="M30.1.8H1.9A1.4,1.4,0,0,0,.5,2.2V8.8a1.4,1.4,0,0,0,1.4,1.4H30.1a1.4,1.4,0,0,0,1.4-1.4V2.2A1.4,1.4,0,0,0,30.1.8ZM21.5,6.3H2.5v-1h19Zm5.6,1.8a2.7,2.7,0,0,1-2.7-2.6,2.7,2.7,0,1,1,5.3,0A2.6,2.6,0,0,1,27.1,8.1Z" style="fill: var(--tpy-icon-fill)"/><path d="M28.5,15.5h-1V14.4h-.6a.2.2,0,0,0-.2.2v.9h-1v.8h1.1v1h.9v-1h1.1v-.8Z" style="fill: var(--tpy-icon-fill)"/><path d="M30.1,11.3H1.9A1.4,1.4,0,0,0,.5,12.7v6.6a1.4,1.4,0,0,0,1.4,1.4H30.1a1.4,1.4,0,0,0,1.4-1.4V12.7A1.4,1.4,0,0,0,30.1,11.3Zm-8.6,5.5H2.5v-1h19Zm5.6,1.8A2.7,2.7,0,1,1,29.7,16,2.7,2.7,0,0,1,27.1,18.6Z" style="fill: var(--tpy-icon-fill)"/><path d="M28.5,26h-1v-.9a.3.3,0,0,0-.1-.2h-.6a.2.2,0,0,0-.2.2V26h-1v.8h1.1v1h.9v-1h1.1V26Z" style="fill: var(--tpy-icon-fill)"/><path d="M30.1,21.8H1.9A1.4,1.4,0,0,0,.5,23.2v6.6a1.4,1.4,0,0,0,1.4,1.4H30.1a1.4,1.4,0,0,0,1.4-1.4V23.2A1.4,1.4,0,0,0,30.1,21.8Zm-8.6,5.5H2.5v-1h19Zm5.6,1.8a2.7,2.7,0,1,1,2.6-2.6A2.7,2.7,0,0,1,27.1,29.1Z" style="fill: var(--tpy-icon-fill)"/></g>
</symbol>
<symbol id="icon3-5" viewBox="0 0 32 32"><g id="Layer_2" data-name="Layer 2"><path d="M13.5,14.7A1.3,1.3,0,0,1,14.8,16v3.1H17A2.9,2.9,0,0,0,19.6,16V3.8A2.9,2.9,0,0,0,17,.7H3.7A2.9,2.9,0,0,0,1,3.8V16a2.9,2.9,0,0,0,2.7,3.1h8.5V16A1.3,1.3,0,0,1,13.5,14.7Zm2-10.9a2.3,2.3,0,0,1,2.3,2.3,2.3,2.3,0,0,1-2.3,2.3,2.4,2.4,0,0,1-2.3-2.3A2.3,2.3,0,0,1,15.5,3.8ZM7.7,17.6H4.1A1.6,1.6,0,0,1,2.5,16V12.8l4.6-4a2.3,2.3,0,0,1,3.1,0l3.1,3.1Z" style="fill: var(--tpy-icon-fill)"/><path d="M22,21.2a1.3,1.3,0,0,0-1.3,1.3h-.2v-.8a1.3,1.3,0,0,0-2.6,0v.8h-.3V21.2a1.3,1.3,0,0,0-2.6,0v1.3h-.2V19.1H12.2V25l-1-1.5a1.3,1.3,0,0,0-2.1,1.6l4.1,5.6a1.5,1.5,0,0,0,1.1.6H21a1.2,1.2,0,0,0,1.2-1l1.1-4.4V22.5A1.3,1.3,0,0,0,22,21.2Z" style="fill: var(--tpy-icon-fill)"/><path d="M22.2,9.4H30a1,1,0,0,0,1-1,1,1,0,0,0-1-.9H22.2a.9.9,0,0,0-1,.9A.9.9,0,0,0,22.2,9.4Z" style="fill: var(--tpy-icon-fill)"/><path d="M30,11.7H22.2a1,1,0,0,0,0,2H30a1.1,1.1,0,0,0,1-1A1.1,1.1,0,0,0,30,11.7Z" style="fill: var(--tpy-icon-fill)"/><path d="M30,16H22.2a1,1,0,0,0,0,2H30a1,1,0,0,0,0-2Z" style="fill: var(--tpy-icon-fill)"/></g>
</symbol>
<symbol id="icon3-6" viewBox="0 0 32 32"><g id="Layer_2" data-name="Layer 2"><path d="M26.3,3.7H5.7A4.1,4.1,0,0,0,1.6,7.8V24.2a4.1,4.1,0,0,0,4.1,4.1H26.3a4.1,4.1,0,0,0,4.1-4.1V7.8A4.1,4.1,0,0,0,26.3,3.7ZM16,26.1A10.1,10.1,0,1,1,26.1,16,10.1,10.1,0,0,1,16,26.1Z" style="fill: var(--tpy-icon-fill)"/><path d="M21.2,14.8H17.9a.5.5,0,0,1-.5-.4V11.1a1.4,1.4,0,1,0-2.8,0v3.3a.5.5,0,0,1-.5.4H10.8a1.5,1.5,0,0,0-1.4,1.5,1.5,1.5,0,0,0,1.4,1.4h3.3a.5.5,0,0,1,.5.4v3.3a1.4,1.4,0,0,0,2.8,0V18.1a.5.5,0,0,1,.5-.4h3.3a1.5,1.5,0,0,0,1.4-1.4A1.5,1.5,0,0,0,21.2,14.8Z" style="fill: var(--tpy-icon-fill)"/></g>
</symbol>
<symbol id="icon3-7" viewBox="0 0 32 32"><g id="Layer_2" data-name="Layer 2"><path d="M27.2,1.5H4.8a3.1,3.1,0,0,0-3.3,3V24.7l14,5.8,15-5.8V4.5A3.1,3.1,0,0,0,27.2,1.5ZM15.5,25.8,9.3,12.9l4.2,1.3a.4.4,0,0,0,.5-.1.5.5,0,0,0,.3-.5l.2-6.1h3l-.2,6.2a.8.8,0,0,0,.2.4h0a.6.6,0,0,0,.6,0l4.2-1.1Z" style="fill: var(--tpy-icon-fill)"/></g>
</symbol>
<symbol id="icon4-1" viewBox="0 0 32 32"><g id="Layer_2" data-name="Layer 2"><path d="M13.9,13.1c0,3-3.2,3-3.2,4.1v.2a.6.6,0,0,1-.6.6H8.3a.6.6,0,0,1-.6-.6v-.3c0-1.5,1.2-2.2,2.1-2.7s1.2-.7,1.2-1.3-1-1.2-1.7-1.2a2.4,2.4,0,0,0-2.1,1.2.6.6,0,0,1-.9.1l-1.1-.8a.6.6,0,0,1-.1-.8A4.8,4.8,0,0,1,9.5,9.3C11.6,9.3,13.9,10.9,13.9,13.1ZM11,20.5a1.8,1.8,0,1,1-1.8-1.8A1.8,1.8,0,0,1,11,20.5Z" style="fill: var(--tpy-icon-fill)"/><path d="M27.8,1.3H4.2A3.1,3.1,0,0,0,1,4.4V27.1a3.2,3.2,0,0,0,3.2,3.2H27.8A3.2,3.2,0,0,0,31,27.1V4.4A3.1,3.1,0,0,0,27.8,1.3Zm-12.3,23H2.5V7.3h13Zm13,0h-11a1,1,0,0,1-1-1,.9.9,0,0,1,1-1h11a.9.9,0,0,1,1,1A1,1,0,0,1,28.5,24.3Zm0-3h-11a1,1,0,0,1-1-1,.9.9,0,0,1,1-1h11a.9.9,0,0,1,1,1A1,1,0,0,1,28.5,21.3Zm0-3h-11a1,1,0,0,1-1-1,.9.9,0,0,1,1-1h11a.9.9,0,0,1,1,1A1,1,0,0,1,28.5,18.3Zm0-3h-11a1,1,0,0,1-1-1,.9.9,0,0,1,1-1h11a.9.9,0,0,1,1,1A1,1,0,0,1,28.5,15.3Zm0-3h-11a1,1,0,0,1-1-1,.9.9,0,0,1,1-1h11a.9.9,0,0,1,1,1A1,1,0,0,1,28.5,12.3Zm0-3h-11a1,1,0,0,1-1-1,.9.9,0,0,1,1-1h11a.9.9,0,0,1,1,1A1,1,0,0,1,28.5,9.3Z" style="fill: var(--tpy-icon-fill)"/></g>
</symbol>
<symbol id="icon4-10" viewBox="0 0 32 32"><g id="Layer_2" data-name="Layer 2"><rect x="21.3" y="19.2" width="6.4" height="6.39" rx="1.5" style="fill: var(--tpy-icon-fill)"/><path d="M12.4,13.4a.9.9,0,0,1,.9,1v2.3h.4a5.7,5.7,0,0,0,5.4-3.6A3,3,0,0,0,22,15.5h6.8a2.9,2.9,0,0,0,2.9-2.9v-9A2.8,2.8,0,0,0,28.8.8H22a2.8,2.8,0,0,0-2.9,2.8V8.5A6,6,0,0,0,13.7,5,6.1,6.1,0,0,0,9.3,7H14a.6.6,0,0,1,.6.5.6.6,0,0,1-.6.6H8.6l-.4.7h4a.6.6,0,0,1,.5.6.5.5,0,0,1-.5.5H8a3.1,3.1,0,0,0-.1,1v.2H11a.5.5,0,0,1,0,1H8a5.7,5.7,0,0,0,3.4,4.1V14.4A.9.9,0,0,1,12.4,13.4Zm7.7-9.8A1.9,1.9,0,0,1,22,1.8h6.8a1.9,1.9,0,0,1,1.9,1.8v9a1.9,1.9,0,0,1-1.9,1.8H22a1.9,1.9,0,0,1-1.9-1.8Z" style="fill: var(--tpy-icon-fill)"/><path d="M11.4,16.2V21l-.8-1a.9.9,0,0,0-1.3-.2.8.8,0,0,0-.2,1.3l3.1,4.3a1,1,0,0,0,.7.4H18a.9.9,0,0,0,.9-.8l.2-.7v4.1A2.8,2.8,0,0,0,22,31.2h6.8a2.8,2.8,0,0,0,2.9-2.8v-9a2.9,2.9,0,0,0-2.9-2.9H22a2.8,2.8,0,0,0-2.7,1.9l-.5-.2a1,1,0,0,0-1,1h-.2v-.6a1,1,0,0,0-1-1,1,1,0,0,0-.9,1v.6h-.2v-1a1,1,0,0,0-2,0v1h-.2V16.7A4.1,4.1,0,0,1,11.4,16.2Zm8.7,3.2A1.9,1.9,0,0,1,22,17.6h6.8a1.9,1.9,0,0,1,1.9,1.8v9a1.9,1.9,0,0,1-1.9,1.8H22a1.9,1.9,0,0,1-1.9-1.8Z" style="fill: var(--tpy-icon-fill)"/><path d="M4.5,7a.6.6,0,0,0-.6.5.6.6,0,0,0,.6.6H8.6A4.1,4.1,0,0,1,9.3,7Z" style="fill: var(--tpy-icon-fill)"/><path d="M1.4,11.1a.5.5,0,0,0,0,1H8c0-.3-.1-.7-.1-1Z" style="fill: var(--tpy-icon-fill)"/><path d="M.8,8.8a.6.6,0,0,0-.5.6.5.5,0,0,0,.5.5H8a4.3,4.3,0,0,1,.2-1.1Z" style="fill: var(--tpy-icon-fill)"/></g>
</symbol>
<symbol id="icon4-11" viewBox="0 0 32 32"><g id="Layer_2" data-name="Layer 2"><rect x="3.5" y="5.4" width="14.4" height="0.94" style="fill: var(--tpy-icon-fill)"/><rect x="3.5" y="25.1" width="14.4" height="0.94" style="fill: var(--tpy-icon-fill)"/><path d="M26.3,7.3c0,.1.1.1.2.1a.1.1,0,0,0,.1-.1l2.9-2.9c.1,0,.1-.1.1-.2a.1.1,0,0,0-.1-.1l-.6-.7h-.4l-2,2.1L24.4,3.4H24l-.6.7a.1.1,0,0,0-.1.1c0,.1,0,.2.1.2Z" style="fill: var(--tpy-icon-fill)"/><path d="M20.5,23.1a.9.9,0,1,0-1.4,1l2.7,3.8a1.1,1.1,0,0,0,.7.3H27a1,1,0,0,0,.8-.6l.7-2.9V22.4a.8.8,0,0,0-.9-.8.8.8,0,0,0-.8.8h-.2v-.5a.9.9,0,0,0-.8-.9.9.9,0,0,0-.9.9v.5h-.2v-.8a.9.9,0,0,0-.8-.9.9.9,0,0,0-.9.9v.8h-.1V19.8H21.1V24Z" style="fill: var(--tpy-icon-fill)"/><path d="M28.1,1H3.9A3.4,3.4,0,0,0,.5,4.4V27.6A3.4,3.4,0,0,0,3.9,31H28.1a3.4,3.4,0,0,0,3.4-3.4V4.4A3.4,3.4,0,0,0,28.1,1ZM3.9,1.9H28.1a2.5,2.5,0,0,1,2.4,2.5v7.4a1.3,1.3,0,0,0-1.2-.8H2.4a1.2,1.2,0,0,0-.9.3V4.4A2.5,2.5,0,0,1,3.9,1.9Zm14,13.3v1H3.5v-1ZM28.1,30.1H3.9a2.5,2.5,0,0,1-2.4-2.5V19.5a1.2,1.2,0,0,0,.9.3H21.1V18.1a.9.9,0,0,1,1.8,0v1.7h6.4a1.3,1.3,0,0,0,1.2-.8v8.6A2.5,2.5,0,0,1,28.1,30.1Z" style="fill: var(--tpy-icon-fill)"/></g>
</symbol>
<symbol id="icon4-12" viewBox="0 0 32 32"><g id="Layer_2" data-name="Layer 2"><path d="M20.7,12.4H18.5V2.7h-2L14,4.2h-.1c-.1,0-.1.1-.1.2s-.1.1-.1.2v.9a.3.3,0,0,0,.1.2h.6l1.8-1.1v7.5H13.8v.3a.6.6,0,0,0-.1.4.9.9,0,0,0,.1.5V14h6.7v-.4a.9.9,0,0,0,.1-.5v-.4A.4.4,0,0,1,20.7,12.4Z" style="fill: var(--tpy-icon-fill)"/><path d="M30.3,9.7a2.2,2.2,0,0,0-.5-.8L29,8.3A2,2,0,0,0,27.9,8h0a1.9,1.9,0,0,0,.9-.4l.7-.6a1.9,1.9,0,0,0,.3-.8,3,3,0,0,0,.2-1A2.7,2.7,0,0,0,29.7,4a1.5,1.5,0,0,0-.6-.9A3.9,3.9,0,0,0,28,2.5l-1.5-.2H25.3l-.9.3-.7.3-.4.3c0,.1-.1.1-.1.2h-.1V4.9h.3l.3-.2.5-.3.8-.3h1.6l.4.3a.5.5,0,0,1,.3.5.7.7,0,0,1,.1.5,1.5,1.5,0,0,1-.1.7,1,1,0,0,1-.4.5l-.7.4H24.1c0,.1-.1.1-.1.2a.3.3,0,0,0-.1.2V8.9h2.4l.8.4a1,1,0,0,1,.4.5,2.4,2.4,0,0,1,.2.8,1.3,1.3,0,0,1-.1.6,1,1,0,0,1-.4.5l-.7.4h-.8l-1-.2L24,12l-.6-.3h-.3a.2.2,0,0,0-.2.2c-.1.1-.1.3-.1.6v.9l.2.2.3.2.7.2.9.2h1.1a5.5,5.5,0,0,0,1.8-.2l1.4-.7a4.8,4.8,0,0,0,.9-1.1,4,4,0,0,0,.3-1.5A3,3,0,0,0,30.3,9.7Z" style="fill: var(--tpy-icon-fill)"/><path d="M6.6,11h0Z" style="fill: var(--tpy-icon-fill)"/><path d="M6.2,10.5V8.8H5.8l-.7.2v1.4a.6.6,0,0,1-.5.6.6.6,0,0,1-.5-.6v-1H4l-.5.3V10c-.1,0-.1.1-.1.2v.2c-.1.1-.1.2-.1.4a.7.7,0,0,0,.1.5v.6h.5l.5-.4.8-.3H6.5A.5.5,0,0,1,6.2,10.5Z" style="fill: var(--tpy-icon-fill)"/><path d="M8.8,19.7a1,1,0,0,1,1,1v.4h1.1l.2-.2v-.3a4.3,4.3,0,0,0,.1-.5c0-.2-.1-.3-.1-.4s0-.3-.1-.3,0-.2-.1-.2H6l1.4-1.4,1.7-1.9a13,13,0,0,0,1-1.5,6.1,6.1,0,0,0,.5-1.2c0-.4.1-.8.1-1.2a2.7,2.7,0,0,0-.3-1.2,1.7,1.7,0,0,0-.7-1l-.4-.3v1.1a.6.6,0,0,1-.5.6.6.6,0,0,1-.5-.6V8.9H7.2v1.7a.6.6,0,0,1-.5.6h.2l.4.3c.2.2.3.3.3.5a1.3,1.3,0,0,1,.1.6v.7l-.3.8-.6,1a6,6,0,0,1-1.1,1.2L3.6,18.5l-.3.3-.2.4a.8.8,0,0,1-.1.4v.5a.7.7,0,0,0,.1.5c0,.2,0,.3.1.3s.1.2.2.2H7.8v-.4A1,1,0,0,1,8.8,19.7Z" style="fill: var(--tpy-icon-fill)"/><path d="M15.2,24.5a.9.9,0,0,0-1,1H14v-.6a1,1,0,0,0-1-1,1,1,0,0,0-.9,1v.6h-.2v-1a1.1,1.1,0,0,0-1-1,1,1,0,0,0-.9,1v1H9.8V21.1h-2v6.2l-.7-1.1A1.1,1.1,0,0,0,5.7,26a1.1,1.1,0,0,0-.2,1.4l3.1,4.2a1.2,1.2,0,0,0,.8.4h5a1,1,0,0,0,.9-.7l.8-3.3V25.5A.9.9,0,0,0,15.2,24.5Z" style="fill: var(--tpy-icon-fill)"/><path d="M5.1,9.1v-6a.5.5,0,0,0-.5-.5.5.5,0,0,0-.5.5V9.5l.6-.3Z" style="fill: var(--tpy-icon-fill)"/><path d="M7.2,8.8V1a.5.5,0,0,0-1,0V8.8h1Z" style="fill: var(--tpy-icon-fill)"/><path d="M9.3,9.4V5.3a.6.6,0,0,0-.5-.6.6.6,0,0,0-.5.6V8.9h.3Z" style="fill: var(--tpy-icon-fill)"/></g>
</symbol>
<symbol id="icon4-13" viewBox="0 0 32 32"><g id="Layer_2" data-name="Layer 2"><path d="M3.3,3.3H27.8a1.1,1.1,0,0,0,1-1.1,1.1,1.1,0,0,0-1-1H3.3a1.1,1.1,0,0,0-1,1A1.1,1.1,0,0,0,3.3,3.3Z" style="fill: var(--tpy-icon-fill)"/><path d="M15.3,7.2a1.8,1.8,0,0,0-1.8-1.7H2.5A1.8,1.8,0,0,0,.7,7.2v10A1.8,1.8,0,0,0,2.5,19h11a1.8,1.8,0,0,0,1.8-1.8Zm-1.1,10a.7.7,0,0,1-.7.7H2.5a.8.8,0,0,1-.8-.7V7.2a.8.8,0,0,1,.8-.7h11a.7.7,0,0,1,.7.7Z" style="fill: var(--tpy-icon-fill)"/><path d="M12.2,8.3h-1L6.8,12.8l-2-2-.5-.2-.5.2-.9.9c-.1.2-.2.3-.2.5a.8.8,0,0,0,.2.5l2.5,2.4.9,1,.5.2.4-.2,1-1,4.9-4.9a.8.8,0,0,0,.2-.5l-.2-.4Z" style="fill: var(--tpy-icon-fill)"/><path d="M29.5,5.6h-11a1.8,1.8,0,0,0-1.8,1.7v10A1.8,1.8,0,0,0,18,19V18a1.1,1.1,0,1,1,2.2,0v1.1h9.3a1.8,1.8,0,0,0,1.8-1.8V7.3A1.8,1.8,0,0,0,29.5,5.6Zm-1.6,8.7a.8.8,0,0,1,.2.5c0,.2-.1.3-.2.5l-1,.9-.4.2-.5-.2-2-2-2,2-.5.2-.4-.2-1-.9a.9.9,0,0,1-.1-.5.7.7,0,0,1,.1-.5l2.1-2-2.1-2a.6.6,0,0,1-.1-.4.7.7,0,0,1,.1-.5l1-.9a.4.4,0,0,1,.4-.2c.2,0,.4,0,.5.2l2,2,2-2c.1-.2.3-.2.5-.2a.4.4,0,0,1,.4.2l1,.9a.8.8,0,0,1,.2.5l-.2.4-2,2Z" style="fill: var(--tpy-icon-fill)"/><path d="M18,19v6.5l-.9-1.2a1.1,1.1,0,0,0-1.5-.3,1,1,0,0,0-.2,1.5l3.5,4.8a.9.9,0,0,0,.8.5h5.7a1.1,1.1,0,0,0,1-.9l.9-3.7V23.4a1.1,1.1,0,0,0-1.1-1.1,1,1,0,0,0-1,1.1h-.3v-.7a.9.9,0,0,0-1-1,1,1,0,0,0-1.1,1v.7h-.2V22.3a1.1,1.1,0,1,0-2.2,0v1.1h-.2V19.1H18Z" style="fill: var(--tpy-icon-fill)"/></g>
</symbol>
<symbol id="icon4-14" viewBox="0 0 32 32"><g id="Layer_2" data-name="Layer 2"><path d="M15.8,14V4A1.7,1.7,0,0,0,14,2.3H3A1.7,1.7,0,0,0,1.2,4V14A1.7,1.7,0,0,0,3,15.7H14A1.7,1.7,0,0,0,15.8,14ZM2.2,14V4A.8.8,0,0,1,3,3.3H14a.7.7,0,0,1,.7.7V14a.7.7,0,0,1-.7.7H3A.8.8,0,0,1,2.2,14Z" style="fill: var(--tpy-icon-fill)"/><path d="M29,2.4H18a1.7,1.7,0,0,0-1.8,1.7v10a1.8,1.8,0,0,0,1.3,1.7v-1a1.1,1.1,0,1,1,2.2,0v1.1H29a1.8,1.8,0,0,0,1.8-1.8V4.1A1.7,1.7,0,0,0,29,2.4Z" style="fill: var(--tpy-icon-fill)"/><path d="M17.5,15.8v.5H7A1.7,1.7,0,0,0,5.2,18V28A1.7,1.7,0,0,0,7,29.7H18A1.7,1.7,0,0,0,19.8,28v-.4h5.1a1.1,1.1,0,0,0,1-.9l.9-3.7V20.2a1.1,1.1,0,0,0-1.1-1.1,1,1,0,0,0-1,1.1h-.3v-.7a1,1,0,0,0-1-1.1,1.1,1.1,0,0,0-1.1,1.1v.7h-.2V19.1a1.1,1.1,0,0,0-2.2,0v1.1h-.1V18a4.3,4.3,0,0,0-.1-.5V15.9H17.5ZM18,28.7H7a.8.8,0,0,1-.8-.7V18a.8.8,0,0,1,.8-.7H17.5v4.9l-.9-1.1a1.1,1.1,0,0,0-1.5-.3,1,1,0,0,0-.2,1.5l3.5,4.8.3.3V28A.7.7,0,0,1,18,28.7Z" style="fill: var(--tpy-icon-fill)"/></g>
</symbol>
<symbol id="icon4-15" viewBox="0 0 32 32"><g id="Layer_2" data-name="Layer 2"><path d="M5.6,6.9a4.7,4.7,0,1,0,4.7,4.7A4.7,4.7,0,0,0,5.6,6.9Zm0,8.3A3.6,3.6,0,0,1,2,11.6,3.7,3.7,0,0,1,5.6,7.9a3.7,3.7,0,0,1,3.7,3.7A3.6,3.6,0,0,1,5.6,15.2Z" style="fill: var(--tpy-icon-fill)"/><path d="M26.4,6.9A4.7,4.7,0,1,0,31,11.6,4.7,4.7,0,0,0,26.4,6.9Zm0,8.3a3.6,3.6,0,0,1-3.7-3.6,3.7,3.7,0,1,1,7.3,0A3.6,3.6,0,0,1,26.4,15.2Z" style="fill: var(--tpy-icon-fill)"/><path d="M16,13.4a.9.9,0,0,1,1,.9v1.5a4.2,4.2,0,1,0-1.9,0V14.3A.9.9,0,0,1,16,13.4Z" style="fill: var(--tpy-icon-fill)"/><path d="M22.1,18a1,1,0,0,0-1,.9H21v-.6a.9.9,0,0,0-.9-.9,1,1,0,0,0-1,.9v.6H19V18a.9.9,0,0,0-.9-1,.9.9,0,0,0-1,1v.9H17V15.8H15.1v4.8l-.7-1a.9.9,0,0,0-1.3-.2.9.9,0,0,0-.2,1.3l3,4a.8.8,0,0,0,.7.4h4.7a.9.9,0,0,0,.9-.7l.7-3.1A.4.4,0,0,0,23,21V18.9A.9.9,0,0,0,22.1,18Z" style="fill: var(--tpy-icon-fill)"/></g>
</symbol>
<symbol id="icon4-16" viewBox="0 0 32 32"><g id="Layer_2" data-name="Layer 2"><path d="M29.3,3.3H2.7A1.7,1.7,0,0,0,1,5v8.5a1.8,1.8,0,0,0,1.7,1.8H29.3A1.8,1.8,0,0,0,31,13.5V5A1.7,1.7,0,0,0,29.3,3.3ZM30,13.5a.8.8,0,0,1-.7.8H2.7a.8.8,0,0,1-.7-.8V5a.7.7,0,0,1,.7-.7H29.3A.7.7,0,0,1,30,5Z" style="fill: var(--tpy-icon-fill)"/><path d="M29.3,16.8H2.7A1.7,1.7,0,0,0,1,18.5V27a1.8,1.8,0,0,0,1.7,1.8H29.3A1.8,1.8,0,0,0,31,27V18.5A1.7,1.7,0,0,0,29.3,16.8ZM30,27a.8.8,0,0,1-.7.8H2.7A.8.8,0,0,1,2,27V18.5a.7.7,0,0,1,.7-.7H29.3a.7.7,0,0,1,.7.7Z" style="fill: var(--tpy-icon-fill)"/><rect x="3.5" y="19.5" width="1" height="7" style="fill: var(--tpy-icon-fill)"/><path d="M6.5,5.2,3.4,13.6H5.6l.5-1.5H9.3l.5,1.5H12L8.9,5.2Zm.1,5.3L7.7,7.4l1,3.1Z" style="fill: var(--tpy-icon-fill)"/><path d="M17.9,9.2a1.7,1.7,0,0,0,1-.6,2,2,0,0,0,.4-1.3,1.9,1.9,0,0,0-.7-1.6,2.8,2.8,0,0,0-2-.6H12.8v8.5h3.9a3.3,3.3,0,0,0,2.1-.6,2.1,2.1,0,0,0,.7-1.7,2,2,0,0,0-.4-1.3A2.5,2.5,0,0,0,17.9,9.2ZM14.8,6.8h1.3c.8,0,1.1.3,1.1.9s-.3.9-1,.9H14.8Zm1.5,5.1H14.8V10h1.5a1.1,1.1,0,0,1,.8.3.9.9,0,0,1,.3.7C17.4,11.6,17,11.9,16.3,11.9Z" style="fill: var(--tpy-icon-fill)"/><path d="M24.4,6.9a1.6,1.6,0,0,1,1.2.4,1.8,1.8,0,0,1,.8.9h2.1a3.8,3.8,0,0,0-1.3-2.3A4,4,0,0,0,24.5,5a4,4,0,0,0-2.2.6,3.4,3.4,0,0,0-1.4,1.5,4.3,4.3,0,0,0-.5,2.3,4.2,4.2,0,0,0,.5,2.2,2.9,2.9,0,0,0,1.4,1.5,4,4,0,0,0,2.2.6,4,4,0,0,0,2.7-.9,3.8,3.8,0,0,0,1.3-2.3H26.4a1.8,1.8,0,0,1-.8.9,1.6,1.6,0,0,1-1.2.4,1.9,1.9,0,0,1-1.4-.7,2.4,2.4,0,0,1-.6-1.7A2.4,2.4,0,0,1,23,7.6,1.6,1.6,0,0,1,24.4,6.9Z" style="fill: var(--tpy-icon-fill)"/></g>
</symbol>
<symbol id="icon4-17" viewBox="0 0 32 32"><g id="Layer_2" data-name="Layer 2"><path d="M29.3,10H2.7A1.8,1.8,0,0,0,1,11.7v8.6A1.8,1.8,0,0,0,2.7,22H29.3A1.8,1.8,0,0,0,31,20.3V11.7A1.8,1.8,0,0,0,29.3,10Zm-13,6.7H3.7a.7.7,0,0,1,0-1.4H16.3a.7.7,0,0,1,0,1.4Zm13.2-1.4L26,18.6a.6.6,0,0,1-1-.4V16.4c-3.5,0-5,.9-4,4.2a.4.4,0,0,1-.6.4,4.6,4.6,0,0,1-1.9-3.5c0-3.5,2.9-4.2,6.5-4.2V11.5a.6.6,0,0,1,1-.4l3.5,3.3A.6.6,0,0,1,29.5,15.3Z" style="fill: var(--tpy-icon-fill)"/></g>
</symbol>
<symbol id="icon4-2" viewBox="0 0 32 32"><g id="Layer_2" data-name="Layer 2"><path d="M6.7,16a1.7,1.7,0,0,0-.5-1.3,1.8,1.8,0,0,0-1.3-.4H4.2v3.4h.7a1.8,1.8,0,0,0,1.3-.4A1.9,1.9,0,0,0,6.7,16Z" style="fill: var(--tpy-icon-fill)"/><polygon points="5.4 7.8 4.8 7.3 4.7 7.8 5.4 7.8" style="fill: var(--tpy-icon-fill)"/><path d="M17.5,8.2a.8.8,0,0,0-.2-.5.8.8,0,0,0-.7-.2h-1V8.8h1.1C17.2,8.8,17.5,8.6,17.5,8.2Z" style="fill: var(--tpy-icon-fill)"/><path d="M17.3,5.8c0-.4-.2-.7-.8-.7h-.9V6.5h1A.6.6,0,0,0,17.3,5.8Z" style="fill: var(--tpy-icon-fill)"/><polygon points="17.2 17.9 16.1 16.9 16.1 17.9 17.2 17.9" style="fill: var(--tpy-icon-fill)"/><path d="M27.8,1.5H4.2A3.2,3.2,0,0,0,1,4.7V27.3a3.2,3.2,0,0,0,3.2,3.2H27.8A3.2,3.2,0,0,0,31,27.3V4.7A3.2,3.2,0,0,0,27.8,1.5ZM24.1,5.4a2.9,2.9,0,0,1,1.1-1.1,2.4,2.4,0,0,1,1.5-.4,3.4,3.4,0,0,1,2,.6,2.6,2.6,0,0,1,.9,1.7H28.1a1.8,1.8,0,0,0-.5-.7,1.5,1.5,0,0,0-.9-.2,1.2,1.2,0,0,0-1,.4A2,2,0,0,0,25.3,7a2,2,0,0,0,.4,1.3,1.2,1.2,0,0,0,1,.4l.9-.2a1.8,1.8,0,0,0,.5-.7h1.5a2.6,2.6,0,0,1-.9,1.7,3.4,3.4,0,0,1-2,.6,2.4,2.4,0,0,1-1.5-.4,2.9,2.9,0,0,1-1.1-1.1A4.1,4.1,0,0,1,23.8,7,4.1,4.1,0,0,1,24.1,5.4Zm4,10.1v1.1H26.2V19H24.7V13h4v1.1H26.2v1.4ZM14.1,4h2.8a2,2,0,0,1,1.4.4c.4.2.5.6.5,1.1a1.2,1.2,0,0,1-.3.9,1.2,1.2,0,0,1-.7.5l.8.5a1.3,1.3,0,0,1,.4,1,1.7,1.7,0,0,1-.5,1.2A2.4,2.4,0,0,1,17,10H14.1ZM8.4,26.1a2.7,2.7,0,0,1-.6,1,2.2,2.2,0,0,1-.9.7,3.2,3.2,0,0,1-1.4.3,2.9,2.9,0,0,1-1.6-.4,2.7,2.7,0,0,1-1-1.1,3.4,3.4,0,0,1,0-3.2,2.7,2.7,0,0,1,1-1.1,2.9,2.9,0,0,1,1.6-.4,2.9,2.9,0,0,1,1.9.6A2,2,0,0,1,8.3,24H6.8l-.5-.5a1.1,1.1,0,0,0-.8-.2,1.5,1.5,0,0,0-1.1.4A1.8,1.8,0,0,0,4,25a1.7,1.7,0,0,0,.4,1.3,1.7,1.7,0,0,0,1.3.5,1.6,1.6,0,0,0,.9-.3,2.4,2.4,0,0,0,.6-.8H5.3V24.6H8.4ZM2.7,19V13H5a3.3,3.3,0,0,1,1.7.4,2.7,2.7,0,0,1,1.1,1A4.2,4.2,0,0,1,8.2,16a4.2,4.2,0,0,1-.4,1.6,3.8,3.8,0,0,1-1.1,1.1A4.7,4.7,0,0,1,5,19Zm16.5,9H17.7V25.5H15.4V28H13.9V22h1.5v2.3h2.3V22h1.5Zm11.1-.4a.9.9,0,0,1-.8.4l-.6-.2-1.5-1.2V28H26V25.3l-7.6-6.4H14.7V15.7L8,10H6.9L6.6,8.9H4.3L3.9,10H2.4L3.7,6.4,1.9,4.8A1,1,0,1,1,3.1,3.2L4.5,4.4V4H6.3l1,2.8L14.7,13h3.7v1.1H16.1v.2l1.3,1.1h.8V16L26,22.7V22h1.4v1.9l2.7,2.3A1,1,0,0,1,30.3,27.6Z" style="fill: var(--tpy-icon-fill)"/></g>
</symbol>
<symbol id="icon4-3" viewBox="0 0 32 32"><g id="Layer_2" data-name="Layer 2"><path d="M3,29h8V21H3Zm2.1-5.1a2.2,2.2,0,0,1,.9-1,2.8,2.8,0,0,1,1.5-.4,2.9,2.9,0,0,1,1.9.6,3.8,3.8,0,0,1,.9,1.5H8.8L8.3,24l-.8-.2a1.3,1.3,0,0,0-1,.4,2,2,0,0,0,0,2.4,1.4,1.4,0,0,0,1,.5,1.1,1.1,0,0,0,.8-.3,1,1,0,0,0,.5-.6h1.5a3.5,3.5,0,0,1-.9,1.6,2.9,2.9,0,0,1-1.9.6A4.2,4.2,0,0,1,6,28a2.2,2.2,0,0,1-.9-1,2.9,2.9,0,0,1-.4-1.6A2.8,2.8,0,0,1,5.1,23.9Z" style="fill: var(--tpy-icon-fill)"/><path d="M3,20h8V12H3Zm2.2-6.4H7.8a2.6,2.6,0,0,1,1.4.3A1.6,1.6,0,0,1,9.7,15a1.2,1.2,0,0,1-.3.9,1.8,1.8,0,0,1-.7.5,1,1,0,0,1,.8.5,1.2,1.2,0,0,1,.3.9,1.4,1.4,0,0,1-.5,1.1,2,2,0,0,1-1.4.4H5.2Z" style="fill: var(--tpy-icon-fill)"/><path d="M8.4,17.6a.8.8,0,0,0-.2-.5l-.6-.2h-1v1.3h1C8.1,18.2,8.4,18,8.4,17.6Z" style="fill: var(--tpy-icon-fill)"/><path d="M8.2,15.3c0-.4-.2-.6-.7-.6H6.6v1.2h.9C8,15.9,8.2,15.7,8.2,15.3Z" style="fill: var(--tpy-icon-fill)"/><path d="M3,11h8V3H3ZM6.7,4.6H8.3l2.1,5.7H8.9l-.3-1H6.4l-.4,1H4.6Z" style="fill: var(--tpy-icon-fill)"/><polygon points="7.5 6.1 6.8 8.2 8.2 8.2 7.5 6.1" style="fill: var(--tpy-icon-fill)"/><path d="M12,20h8V12H12Zm1.9-6.5h2.2a4.2,4.2,0,0,1,1.6.4,2.4,2.4,0,0,1,1,1,2.8,2.8,0,0,1,.4,1.5,2.4,2.4,0,0,1-.4,1.5,2.7,2.7,0,0,1-1,1.1,4.1,4.1,0,0,1-1.6.3H13.9Z" style="fill: var(--tpy-icon-fill)"/><path d="M17.7,16.4a1.7,1.7,0,0,0-.5-1.2,1.7,1.7,0,0,0-1.3-.4h-.6v3.3h.6a1.7,1.7,0,0,0,1.3-.5A1.5,1.5,0,0,0,17.7,16.4Z" style="fill: var(--tpy-icon-fill)"/><path d="M21,12v8h8V12Zm5.5,2.7H24.3v1.2h1.9v1H24.3v1.3h2.2v1.1H22.9V13.5h3.6Z" style="fill: var(--tpy-icon-fill)"/></g>
</symbol>
<symbol id="icon4-4" viewBox="0 0 32 32"><g id="Layer_2" data-name="Layer 2"><path d="M19.1,13.3a1.3,1.3,0,0,1,1.3,1.3v3.1H21a7.9,7.9,0,1,0-5.9-13h6.3a.7.7,0,1,1,0,1.4H14.1c-.2.3-.3.7-.5,1h5.3a.7.7,0,0,1,0,1.4H13.3a6.9,6.9,0,0,0-.2,1.3v.3h4.1a.7.7,0,1,1,0,1.4h-4a8.1,8.1,0,0,0,4.5,5.5V14.6A1.3,1.3,0,0,1,19.1,13.3Z" style="fill: var(--tpy-icon-fill)"/><path d="M27.7,19.8a1.3,1.3,0,0,0-1.3,1.3h-.3v-.8a1.3,1.3,0,0,0-2.6,0v.8h-.2V19.8a1.3,1.3,0,1,0-2.6,0v1.3h-.3V17.7a5.8,5.8,0,0,1-2.6-.6v6.4l-1-1.4a1.3,1.3,0,0,0-1.8-.3,1.3,1.3,0,0,0-.3,1.8l4.2,5.7a1.3,1.3,0,0,0,1,.6h6.7a1.3,1.3,0,0,0,1.3-1l1-4.4a.4.4,0,0,0,.1-.3V21.1A1.3,1.3,0,0,0,27.7,19.8Z" style="fill: var(--tpy-icon-fill)"/><path d="M8.6,4.8a.7.7,0,0,0,0,1.4h5.5a7.1,7.1,0,0,1,1-1.4Z" style="fill: var(--tpy-icon-fill)"/><path d="M4.5,10.2a.7.7,0,1,0,0,1.4h8.8a6.1,6.1,0,0,1-.1-1.4Z" style="fill: var(--tpy-icon-fill)"/><path d="M3.7,7.2a.7.7,0,1,0,0,1.4h9.6a7,7,0,0,1,.3-1.4Z" style="fill: var(--tpy-icon-fill)"/></g>
</symbol>
<symbol id="icon4-5" viewBox="0 0 32 32"><g id="Layer_2" data-name="Layer 2"><path d="M28.3,7.2H23.7a2.1,2.1,0,0,0-2.1,2.1v4.6A2.1,2.1,0,0,0,23.7,16h4.6a2.1,2.1,0,0,0,2.1-2.1V9.3A2.2,2.2,0,0,0,28.3,7.2Zm1.3,6.7a1.3,1.3,0,0,1-1.3,1.4H23.7a1.4,1.4,0,0,1-1.4-1.4V9.3A1.3,1.3,0,0,1,23.7,8h4.6a1.3,1.3,0,0,1,1.3,1.3Z" style="fill: var(--tpy-icon-fill)"/><path d="M26,17a4.4,4.4,0,1,0,4.4,4.4A4.4,4.4,0,0,0,26,17Zm0,8a3.7,3.7,0,0,1-3.7-3.6A3.8,3.8,0,0,1,26,17.7a3.7,3.7,0,0,1,3.6,3.7A3.6,3.6,0,0,1,26,25Z" style="fill: var(--tpy-icon-fill)"/><path d="M13.1,14.1a.9.9,0,0,1,.9.9v2.2h.4a5.6,5.6,0,0,0,0-11.2A5.7,5.7,0,0,0,10.2,8h4.5a.5.5,0,0,1,0,1H9.5l-.3.8H13a.5.5,0,0,1,.5.5.6.6,0,0,1-.5.5H8.9c0,.3-.1.6-.1.9s.1.1.1.2h2.9a.5.5,0,0,1,0,1H9a5.7,5.7,0,0,0,3.2,3.9V15A.9.9,0,0,1,13.1,14.1Z" style="fill: var(--tpy-icon-fill)"/><path d="M19.2,18.7a.9.9,0,0,0-.9.9h-.2v-.5a.9.9,0,0,0-.9-1,1,1,0,0,0-1,1v.5h-.1v-.9a1,1,0,0,0-1-.9.9.9,0,0,0-.9.9v.9H14V17.2a5.8,5.8,0,0,1-1.8-.4v4.6l-.7-1a.9.9,0,0,0-1.3-.2.8.8,0,0,0-.2,1.2l2.9,4.1a1.2,1.2,0,0,0,.8.4h4.8a1,1,0,0,0,.9-.7l.7-3.2V19.6A.9.9,0,0,0,19.2,18.7Z" style="fill: var(--tpy-icon-fill)"/><path d="M5.6,8a.5.5,0,0,0,0,1H9.5l.7-1Z" style="fill: var(--tpy-icon-fill)"/><path d="M2.7,11.9a.5.5,0,0,0,0,1H9a3.4,3.4,0,0,1-.1-1Z" style="fill: var(--tpy-icon-fill)"/><path d="M2.1,9.8a.5.5,0,0,0-.5.5.6.6,0,0,0,.5.5H8.9l.3-1Z" style="fill: var(--tpy-icon-fill)"/></g>
</symbol>
<symbol id="icon4-6" viewBox="0 0 32 32"><g id="Layer_2" data-name="Layer 2"><path d="M20.2,18.4h-.1v5.4l-.8-1.1a1,1,0,0,0-1.4-.3,1.1,1.1,0,0,0-.2,1.4l3.2,4.5.8.4H27a1,1,0,0,0,1-.8l.8-3.4V21.8a1.1,1.1,0,0,0-1-1,1,1,0,0,0-1,1h-.2v-.6a1.1,1.1,0,0,0-1-1,1,1,0,0,0-1,1v.6h-.2v-1a1.1,1.1,0,0,0-1-1,1.1,1.1,0,0,0-1.1,1v1h-.2V18.3Z" style="fill: var(--tpy-icon-fill)"/><path d="M21.1,15.8a.9.9,0,0,1,1,1v1.5a18.9,18.9,0,0,0,3.4-.9,9.2,9.2,0,0,0,3.8-2.8,5.5,5.5,0,0,0,1.5-3.8,5.5,5.5,0,0,0-1.5-3.7,9.2,9.2,0,0,0-3.8-2.8,13.2,13.2,0,0,0-5.3-1,13.5,13.5,0,0,0-4.1.6,10.7,10.7,0,0,0-3.4,1.6l-1,.9h6.7a.5.5,0,0,1,0,1H10.8l-.4.5a6.9,6.9,0,0,0-.5,1.3h7.5a.5.5,0,0,1,0,1H9.6v.6a5.1,5.1,0,0,0,.2,1.3h5a.5.5,0,0,1,0,1H10.1a6,6,0,0,0,.6,1.1,9.2,9.2,0,0,0,2.9,2.6l-.3.9-.3.7a1.5,1.5,0,0,0-.4.6l-.4.4-.4.5-.4.4h0a15922629181314.4,15922629181314.4,0,0,1-.2.2h-.1V21h0l.2.3h.4l1.3-.2a13.9,13.9,0,0,0,5.5-2.9h1.6V16.8A1,1,0,0,1,21.1,15.8Z" style="fill: var(--tpy-icon-fill)"/><path d="M7,6.4a.6.6,0,0,0-.6.5.6.6,0,0,0,.6.5h3.8l.9-1Z" style="fill: var(--tpy-icon-fill)"/><path d="M1.8,9.2a.5.5,0,0,0,0,1H9.6l.3-1Z" style="fill: var(--tpy-icon-fill)"/><path d="M2.3,12.1a.5.5,0,1,0,0,1h7.8a1.9,1.9,0,0,1-.3-1Z" style="fill: var(--tpy-icon-fill)"/></g>
</symbol>
<symbol id="icon4-7" viewBox="0 0 32 32"><g id="Layer_2" data-name="Layer 2"><polygon points="4.3 14.9 5.4 14.9 4.9 13.2 4.3 14.9" style="fill: var(--tpy-icon-fill)"/><path d="M10.6,14.7H9.8v1h.8c.4,0,.6-.2.6-.5a.5.5,0,0,0-.2-.4Z" style="fill: var(--tpy-icon-fill)"/><path d="M11.1,13.4c0-.3-.2-.5-.6-.5H9.8v1h.7C10.9,13.9,11.1,13.7,11.1,13.4Z" style="fill: var(--tpy-icon-fill)"/><path d="M22.3,17.3a1.1,1.1,0,0,1,1.1,1v2H31V8.8H29.3v5.1a.6.6,0,0,1-1.2,0V8.8H26.7v6.1a.6.6,0,0,1-.6.6.6.6,0,0,1-.5-.6V8.8H24.1v4.5c0,.4-.2.6-.5.6a.6.6,0,0,1-.6-.6V8.8H1V20.3H21.3v-2A1,1,0,0,1,22.3,17.3ZM6,16.6l-.3-.8H4l-.3.8H2.5l1.7-4.5H5.5l1.7,4.5Zm5.9-.3a1.6,1.6,0,0,1-1.1.3H8.7V12h2a1.6,1.6,0,0,1,1.1.3,1,1,0,0,1,.4.9,1.4,1.4,0,0,1-.2.7l-.6.3.7.4a1.9,1.9,0,0,1,.2.7A1.3,1.3,0,0,1,11.9,16.3Zm3.4-1a.8.8,0,0,0,.7.3l.7-.2.4-.5h1.1a2.1,2.1,0,0,1-.7,1.3,2.3,2.3,0,0,1-1.4.4,2.1,2.1,0,0,1-1.2-.3,1.6,1.6,0,0,1-.8-.8,2.1,2.1,0,0,1-.3-1.2,2.4,2.4,0,0,1,.3-1.2,1.6,1.6,0,0,1,.8-.8,2.1,2.1,0,0,1,1.2-.3,2.3,2.3,0,0,1,1.4.4,2.1,2.1,0,0,1,.7,1.3H17.1l-.4-.5L16,13a.7.7,0,0,0-.7.4,1.2,1.2,0,0,0-.3.9A1.7,1.7,0,0,0,15.3,15.3Z" style="fill: var(--tpy-icon-fill)"/><path d="M21.3,20.3v5.3l-.9-1.1a1,1,0,0,0-1.4-.3,1.1,1.1,0,0,0-.3,1.5l3.4,4.6a1.2,1.2,0,0,0,.9.5h5.4a1.3,1.3,0,0,0,1.1-.9l.8-3.5V23.6a1.1,1.1,0,0,0-1-1.1,1.1,1.1,0,0,0-1.1,1.1H28V23a1.1,1.1,0,0,0-1-1.1A1.1,1.1,0,0,0,25.9,23v.6h-.2V22.5a1.1,1.1,0,0,0-1.1-1,1.1,1.1,0,0,0-1,1v1.1h-.2V20.3Z" style="fill: var(--tpy-icon-fill)"/><path d="M24.1,1.8a.5.5,0,0,0-.5-.5.6.6,0,0,0-.6.5v7h1.1Z" style="fill: var(--tpy-icon-fill)"/><path d="M26.7,3.4a.6.6,0,0,0-.6-.6.6.6,0,0,0-.5.6V8.8h1.1Z" style="fill: var(--tpy-icon-fill)"/><path d="M29.3,2.4a.6.6,0,1,0-1.2,0V8.8h1.2Z" style="fill: var(--tpy-icon-fill)"/></g>
</symbol>
<symbol id="icon4-8" viewBox="0 0 32 32"><g id="Layer_2" data-name="Layer 2"><path d="M13.9,10.8a1.4,1.4,0,0,1,1.4,1.4h0a3.6,3.6,0,0,0,1.5-.8,4.9,4.9,0,0,0,1.5-2.4H15.9a2.3,2.3,0,0,1-.7,1,2.8,2.8,0,0,1-1.3.3,1.8,1.8,0,0,1-1.5-.7,2.9,2.9,0,0,1-.6-1.9A2.6,2.6,0,0,1,12.4,6a1.8,1.8,0,0,1,1.5-.7,2.8,2.8,0,0,1,1.3.3,2.3,2.3,0,0,1,.7,1h2.4a4.9,4.9,0,0,0-1.5-2.4,4.6,4.6,0,0,0-2.9-.9,4.6,4.6,0,0,0-2.3.5,5,5,0,0,0-1.5,1.7h.7a.7.7,0,0,1,.7.7.7.7,0,0,1-.7.8H9.6v.7h1.2a.8.8,0,0,1,.7.8.7.7,0,0,1-.7.7H9.7l.3.8h.8a.7.7,0,0,1,.7.7.8.8,0,0,1-.5.7l.6.5,1,.3h0A1.3,1.3,0,0,1,13.9,10.8Z" style="fill: var(--tpy-icon-fill)"/><path d="M10,10H1.8a.7.7,0,0,0-.8.7.7.7,0,0,0,.8.8H11a3.8,3.8,0,0,1-.9-1.2Z" style="fill: var(--tpy-icon-fill)"/><path d="M9.6,7.7H6.3a.8.8,0,0,0-.8.8.7.7,0,0,0,.8.7H9.7a6.1,6.1,0,0,1-.1-1.4Z" style="fill: var(--tpy-icon-fill)"/><path d="M1.8,5.5a.7.7,0,0,0-.8.7.7.7,0,0,0,.8.8H9.6a3.3,3.3,0,0,1,.5-1.5Z" style="fill: var(--tpy-icon-fill)"/><path d="M9.5,26.8h-8a.9.9,0,0,0-1,1,1,1,0,0,0,1,1h8a1,1,0,0,0,1-1A.9.9,0,0,0,9.5,26.8Z" style="fill: var(--tpy-icon-fill)"/><path d="M30.5,26.3H23.4l.9-3.7V19a1.3,1.3,0,0,0-1.4-1.3A1.3,1.3,0,0,0,21.6,19h-.3v-.8a1.4,1.4,0,0,0-1.4-1.4,1.4,1.4,0,0,0-1.3,1.4V19h-.3V17.7a1.4,1.4,0,0,0-1.4-1.4,1.3,1.3,0,0,0-1.3,1.4V19h-.3V12.3H13.9a2.7,2.7,0,0,1-1.3-.2v9.4l-1.1-1.5a1.4,1.4,0,0,0-1.9-.3,1.3,1.3,0,0,0-.3,1.9l4.3,6.1a1.8,1.8,0,0,0,1.1.5H30.5a1,1,0,0,0,1-1A.9.9,0,0,0,30.5,26.3Z" style="fill: var(--tpy-icon-fill)"/></g>
</symbol>
<symbol id="icon4-9" viewBox="0 0 32 32"><g id="Layer_2" data-name="Layer 2"><rect x="19.1" y="5.6" width="6.1" height="6.08" rx="1.4" style="fill: var(--tpy-icon-fill)"/><path d="M4.3,11.6a.5.5,0,1,0,0,1H8.2l.7-1Z" style="fill: var(--tpy-icon-fill)"/><path d="M1.4,15.5a.5.5,0,1,0,0,1H7.7a3.4,3.4,0,0,1-.1-1Z" style="fill: var(--tpy-icon-fill)"/><path d="M.9,13.4a.5.5,0,0,0-.5.5.5.5,0,0,0,.5.4H7.6l.3-.9Z" style="fill: var(--tpy-icon-fill)"/><path d="M28.3,2.6h-11A3.3,3.3,0,0,0,14,5.9V9.8h-.9a5.9,5.9,0,0,0-4.2,1.9h4.5a.5.5,0,0,1,0,1H8.2l-.3.8h3.8a.5.5,0,0,1,.5.5.5.5,0,0,1-.5.4H7.6v1.2h2.9a.5.5,0,0,1,0,1H7.7a5.7,5.7,0,0,0,3.2,3.9V18.6a.9.9,0,1,1,1.8,0v2.2h1.7a3.8,3.8,0,0,0,1.1,1.1.9.9,0,0,0-.6.8v.6h-.1v-.9a1.1,1.1,0,0,0-1-1,1,1,0,0,0-.9,1v.9h-.2V20.8a5.8,5.8,0,0,1-1.8-.4v4.5l-.7-1A.9.9,0,0,0,8.7,25l2.9,4.1a1.1,1.1,0,0,0,.8.3h4.7a.9.9,0,0,0,.9-.7l.8-3.1V23.2a.9.9,0,0,0-.5-.8h10a3.3,3.3,0,0,0,3.3-3.3V5.9A3.3,3.3,0,0,0,28.3,2.6ZM17,23.2h-.2v-.6c0-.1-.1-.2-.1-.3h.7A.8.8,0,0,0,17,23.2Zm13.5-4.1a2.2,2.2,0,0,1-2.2,2.2h-11a2.2,2.2,0,0,1-1.8-1,5.5,5.5,0,0,0-.4-10.2V5.9a2.2,2.2,0,0,1,2.2-2.2h11a2.2,2.2,0,0,1,2.2,2.2Z" style="fill: var(--tpy-icon-fill)"/><polygon points="25.6 14.1 24 16.9 22.4 19.6 25.6 19.6 28.8 19.6 27.2 16.9 25.6 14.1" style="fill: var(--tpy-icon-fill)"/></g>
</symbol>
<symbol id="icon5-1" viewBox="0 0 32 32"><g id="Layer_2" data-name="Layer 2"><path d="M28.6,13.4a2.3,2.3,0,0,0,1.1-3.3A15.1,15.1,0,0,0,17,1.6h-.4A14.8,14.8,0,0,0,2,15.5,14.5,14.5,0,0,0,6.3,26.2a14.9,14.9,0,0,0,10.2,4.3H17c7.2-.3,11.3-6.7,11.7-7.4a2.4,2.4,0,0,0-.8-3.4,2.4,2.4,0,0,0-3.4.8c-.1.2-3,4.8-7.7,5a9.8,9.8,0,0,1-7-2.9A9.1,9.1,0,0,1,7,15.7c.2-5.5,5.3-9.2,9.8-9.1a10.2,10.2,0,0,1,8.5,5.7A2.4,2.4,0,0,0,28.6,13.4Z" style="fill: var(--tpy-icon-fill)"/><path d="M20.7,20.8a.5.5,0,0,0,.5-.5V16.4h0l-4.7-3.8-4.7,3.8h0v3.9a.6.6,0,0,0,.6.5h3.1V17.7h2.1v3.1Z" style="fill: var(--tpy-icon-fill)"/><path d="M22.3,16.5h0c.1,0,.2,0,.2-.1l.5-.6c.1-.1.1-.3,0-.3L21.2,14V10.7a.3.3,0,0,0-.3-.3H19.4a.3.3,0,0,0-.3.3v1.5l-2-1.6a.9.9,0,0,0-1.2,0l-5.8,4.9c-.2,0-.2.2-.1.3l.5.6h.4l5.6-4.7,5.6,4.7Z" style="fill: var(--tpy-icon-fill)"/></g>
</symbol>
<symbol id="icon5-2" viewBox="0 0 32 32"><g id="Layer_2" data-name="Layer 2"><path d="M25.3,12.3a2.4,2.4,0,0,0,3.3,1.1,2.3,2.3,0,0,0,1.1-3.3A15.1,15.1,0,0,0,17,1.6h-.4A14.8,14.8,0,0,0,2,15.5,14.5,14.5,0,0,0,6.3,26.2a14.9,14.9,0,0,0,10.2,4.3H17c7.2-.3,11.3-6.7,11.7-7.4a2.4,2.4,0,0,0-4-2.8c-.1-2-3.3-3-4.9-3s-4.9,1-4.9,3v1.5h8.6a9.4,9.4,0,0,1-6.7,3.7,9.8,9.8,0,0,1-7-2.9A9.1,9.1,0,0,1,7,15.7c.2-5.5,5.3-9.2,9.8-9.1A10.2,10.2,0,0,1,25.3,12.3Z" style="fill: var(--tpy-icon-fill)"/><circle cx="13.9" cy="14.1" r="2.3" style="fill: var(--tpy-icon-fill)"/><path d="M9.7,19.5v1.3h4.7v-.5a2.7,2.7,0,0,1,.6-1.7,5.6,5.6,0,0,1,1.5-1,5.4,5.4,0,0,0-2.6-.6C12.5,17,9.7,17.8,9.7,19.5Z" style="fill: var(--tpy-icon-fill)"/><circle cx="19.8" cy="13.6" r="2.8" style="fill: var(--tpy-icon-fill)"/></g>
</symbol>
<symbol id="icon5-3" viewBox="0 0 32 32"><g id="Layer_2" data-name="Layer 2"><path d="M28.6,13.4a2.3,2.3,0,0,0,1.1-3.3A15.1,15.1,0,0,0,17,1.6h-.4A14.8,14.8,0,0,0,2,15.5,14.5,14.5,0,0,0,6.3,26.2a14.9,14.9,0,0,0,10.2,4.3H17c7.2-.3,11.3-6.7,11.7-7.4a2.4,2.4,0,0,0-.8-3.4,2.4,2.4,0,0,0-3.4.8c-.1.2-3,4.8-7.7,5a9.8,9.8,0,0,1-7-2.9A9.1,9.1,0,0,1,7,15.7c.2-5.5,5.3-9.2,9.8-9.1a10.2,10.2,0,0,1,8.5,5.7A2.4,2.4,0,0,0,28.6,13.4Z" style="fill: var(--tpy-icon-fill)"/><path d="M22.8,11.4H11.5a.7.7,0,0,0,0,1.4H22.8a.7.7,0,0,0,0-1.4Z" style="fill: var(--tpy-icon-fill)"/><path d="M11.5,20.8H22.8a.7.7,0,1,0,0-1.4H11.5a.7.7,0,0,0,0,1.4Z" style="fill: var(--tpy-icon-fill)"/><path d="M11.5,15.4H21.9a.7.7,0,0,0,.7-.6.7.7,0,0,0-.7-.7H11.5a.8.8,0,0,0-.7.7C10.8,15.1,11.2,15.4,11.5,15.4Z" style="fill: var(--tpy-icon-fill)"/><path d="M11.5,18.1H20a.7.7,0,0,0,0-1.4H11.5a.7.7,0,1,0,0,1.4Z" style="fill: var(--tpy-icon-fill)"/></g>
</symbol>
<symbol id="icon5-4" viewBox="0 0 32 32"><g id="Layer_2" data-name="Layer 2"><path d="M28.6,13.4a2.3,2.3,0,0,0,1.1-3.3A15.1,15.1,0,0,0,17,1.6h-.4A14.8,14.8,0,0,0,2,15.5,14.5,14.5,0,0,0,6.3,26.2a14.9,14.9,0,0,0,10.2,4.3H17c7.2-.3,11.3-6.7,11.7-7.4a2.4,2.4,0,0,0-.8-3.4,2.4,2.4,0,0,0-3.4.8c-.1.2-3,4.8-7.7,5a9.8,9.8,0,0,1-7-2.9A9.1,9.1,0,0,1,7,15.7c.2-5.5,5.3-9.2,9.8-9.1a10.2,10.2,0,0,1,8.5,5.7A2.4,2.4,0,0,0,28.6,13.4Z" style="fill: var(--tpy-icon-fill)"/><path d="M13.2,15.2A1.2,1.2,0,0,0,14.5,14a1.3,1.3,0,1,0-2.6,0A1.2,1.2,0,0,0,13.2,15.2Z" style="fill: var(--tpy-icon-fill)"/><path d="M21.8,11H11.3a1.1,1.1,0,0,0-1.1,1.1v8a1.1,1.1,0,0,0,1.1,1H21.8a1.1,1.1,0,0,0,1.1-1v-8A1.1,1.1,0,0,0,21.8,11Zm.2,9.1-.2.2H11.3a.2.2,0,0,1-.2-.2v-8c0-.2.1-.3.2-.3H21.8c.1,0,.2.1.2.3Z" style="fill: var(--tpy-icon-fill)"/><polygon points="15.1 17.1 14 16.1 11.9 18.2 11.9 19.4 21.2 19.4 21.2 16.5 18.5 13.7 15.1 17.1" style="fill: var(--tpy-icon-fill)"/></g>
</symbol></svg>